# xmcd CD database file
#
# Track frame offsets:
#	150
#	14401
#	28823
#	38910
#	55942
#	71059
#	83587
#	99010
#	114583
#	125509
#	142718
#	158978
#
# Disc length: 2272 seconds
#
# Revision: 0
# Processed by: cddbd v1.5.2PL0 Copyright (c) Steve Scherf et al.
# Submitted via: ACXtractor (MTCDDB.DLL V2003.07.15)
#
DISCID=9508de0c
DTITLE=Laura Downing - How Blue
DYEAR=2009
DGENRE=Rock
TTITLE0=Tall Timber
TTITLE1=How Blue
TTITLE2=They Taught me to Yodel
TTITLE3=It Takes a Woman
TTITLE4=When you Love Me
TTITLE5=Grand Ole Opry
TTITLE6=The Old Tin Box
TTITLE7=Another Glass of Heartache
TTITLE8=Second Fiddle
TTITLE9=I Need You
TTITLE10=What if She's an Angel
TTITLE11=Happy Yodelling Cowgirl
EXTD=ID3G:  17 YEAR: 2009
EXTT0=
EXTT1=
EXTT2=
EXTT3=
EXTT4=
EXTT5=
EXTT6=
EXTT7=
EXTT8=
EXTT9=
EXTT10=
EXTT11=
PLAYORDER=
